<?xml version="1.0" encoding="UTF-8" standalone="no"?>
<svg width="280px" height="280px" viewBox="0 0 280 280" version="1.1" xmlns="http://www.w3.org/2000/svg" xmlns:xlink="http://www.w3.org/1999/xlink" xmlns:sketch="http://www.bohemiancoding.com/sketch/ns">
    <!-- Generator: Sketch 3.3.2 (12043) - http://www.bohemiancoding.com/sketch -->
    <title>microhero-logo-round-white-circle</title>
    <desc>Created with Sketch.</desc>
    <defs></defs>
    <g id="Page-1" stroke="none" stroke-width="1" fill="none" fill-rule="evenodd" sketch:type="MSPage">
        <g id="microhero-logo-round-white-circle" sketch:type="MSArtboardGroup">
            <g id="Group" sketch:type="MSLayerGroup" transform="translate(12.000000, 12.000000)">
                <circle id="Oval" fill="#FFFFFF" sketch:type="MSShapeGroup" cx="128" cy="128" r="128"></circle>
                <path d="M222.453,214.381 C219.72,211.819 217.068,209.232 214.484,206.626 C210.413,202.521 206.744,198.336 202.927,194.163 C194.429,184.873 183.528,176.114 170.212,168.696 C156.744,161.193 141.978,154.652 124.649,150.023 C137.765,154.402 149.727,162.47 159.549,173.227 C166.914,181.293 172.726,190.815 177.426,200.915 C179.537,205.452 181.565,210.002 183.817,214.464 C187.601,221.965 191.649,229.33 196.118,236.38 C205.859,230.244 214.717,222.835 222.453,214.381 L222.453,214.381 Z" id="Shape" fill="#29ABE2" sketch:type="MSShapeGroup"></path>
                <path d="M159.549,173.227 C149.727,162.47 137.765,154.401 124.649,150.023 C139.203,157.963 149.111,173.539 150,191 L150,254.255 C166.16,251.425 182.06,245.233 196.118,236.379 C191.649,229.329 187.602,221.964 183.817,214.463 C181.565,210.002 179.537,205.452 177.426,200.915 C172.726,190.815 166.914,181.293 159.549,173.227 Z" id="Shape" fill="#1382DF" sketch:type="MSShapeGroup"></path>
                <path d="M128.799949,256 C65.992155,256 13.6503056,211.212924 2,151.848885 C9.38807029,146.891924 18.2776959,144 27.8398323,144 L103.569285,144 C129.212261,144 150,164.774879 150,190.410862 C150,190.410862 149.994047,253.8424 150,254.273177 C143.090072,255.409133 136.014048,256 128.799949,256 Z" id="Oval-Copy" fill="#FFFFFF" sketch:type="MSShapeGroup"></path>
                <circle id="Oval" fill="#DFD9D9" sketch:type="MSShapeGroup" cx="69.5" cy="196.5" r="20.5"></circle>
                <path d="M49.028,78 L114,78 C114,78 115.043361,88.5142988 115,92 C114.846,104.379665 113.634,115.959282 111.529,125.995681 C111.529,125.995681 110.343,131.723223 104,132 L90,132 L90,145.50592 C90,156.824488 80.8243267,166 69.5,166 C58.1781626,166 49,156.822296 49,145.50592 L49,111.49408 C49,111.267404 49.0036801,111.041589 49.0109839,110.816689 L49.028,78 Z" id="Shape" fill="#E09074" sketch:type="MSShapeGroup"></path>
                <path d="M90,132 L90,145.50592 C90,154.178482 84.6129649,161.592857 77,164.585493 L77,136.009893 C77,133.79529 78.7870853,132 81.0055203,132 L90,132 L90,132 Z" id="Rectangle-1" fill="#C3523A" sketch:type="MSShapeGroup"></path>
                <path d="M114.981,55.283 L75.613,55.283 C58.339,55.283 44.337,69.285 44.337,86.559 L44.35,86.559 L44.339,113.144 C44.339,116.272 42.797,119.868 40.297,122.527 L42.774,122.527 C50.547,122.527 56.848,116.226 56.848,108.453 L56.848,104.056 C56.848,100.793 59.217,97.865 62.463,97.538 C66.188,97.163 69.358,100.109 69.358,103.761 L69.358,108.377 L76.099,101.154 C78.802,98.258 80.305,94.445 80.305,90.484 L80.305,86.559 L108.453,86.559 C119.681,86.559 128.782,77.457 128.782,66.23 L128.782,48.286 C125.74,52.551 120.749,55.283 114.981,55.283 L114.981,55.283 Z" id="Shape" fill="#000000" sketch:type="MSShapeGroup"></path>
            </g>
        </g>
    </g>
</svg>